999
"DXF R12 Output" (www.mydxf.blogspot.com)
 0 
SECTION
 2 
HEADER
 9 
$ACADVER
 1 
AC1009
 9 
$EXTMIN
 10 
 0 
 20 
 0 
 9 
$EXTMAX
 10 
 8.5 
 20 
 11 
 0 
ENDSEC
 0 
SECTION
 2 
ENTITIES
0
LINE
8
Layer 1
10
0.793749
20
297.793749
11
-0.793749
21
296.206251
0
LINE
8
Layer 1
10
0.000000
20
298.322915
11
0.000000
21
295.677085
0
LINE
8
Layer 1
10
2.116664
20
295.941668
11
1.058332
21
294.883336
0
LINE
8
Layer 1
10
1.587498
20
296.470834
11
0.529166
21
295.412502
0
LINE
8
Layer 1
10
1.058332
20
297.000000
11
0.000000
21
295.941668
0
LINE
8
Layer 1
10
0.000001
20
355.599578
11
31.314986
21
355.599578
0
LINE
8
Layer 1
10
31.314986
20
355.599578
11
31.314986
21
324.284593
0
LINE
8
Layer 1
10
31.314986
20
324.284593
11
0.000001
21
324.284593
0
LINE
8
Layer 1
10
0.000001
20
324.284593
11
0.000001
21
355.599578
0
LINE
8
Layer 1
10
32.097887
20
323.501692
11
63.412872
21
323.501692
0
LINE
8
Layer 1
10
63.412872
20
323.501692
11
63.412872
21
292.186600
0
LINE
8
Layer 1
10
63.412872
20
292.186600
11
32.097887
21
292.186600
0
LINE
8
Layer 1
10
32.097887
20
292.186600
11
32.097887
21
323.501692
0
LINE
8
Layer 1
10
0.000001
20
355.599578
11
31.314986
21
355.599578
0
LINE
8
Layer 1
10
31.314986
20
355.599578
11
31.314986
21
324.284593
0
LINE
8
Layer 1
10
31.314986
20
324.284593
11
0.000001
21
324.284593
0
LINE
8
Layer 1
10
0.000001
20
324.284593
11
0.000001
21
355.599578
0
LINE
8
Layer 1
10
32.097887
20
323.501692
11
63.412872
21
323.501692
0
LINE
8
Layer 1
10
63.412872
20
323.501692
11
63.412872
21
292.186600
0
LINE
8
Layer 1
10
63.412872
20
292.186600
11
32.097887
21
292.186600
0
LINE
8
Layer 1
10
32.097887
20
292.186600
11
32.097887
21
323.501692
0
LINE
8
Layer 1
10
0.000001
20
291.404572
11
31.314986
21
291.404572
0
LINE
8
Layer 1
10
31.314986
20
291.404572
11
31.314986
21
260.089613
0
LINE
8
Layer 1
10
31.314986
20
260.089613
11
0.000001
21
260.089613
0
LINE
8
Layer 1
10
0.000001
20
260.089613
11
0.000001
21
291.404572
0
LINE
8
Layer 1
10
32.097887
20
259.306712
11
63.412872
21
259.306712
0
LINE
8
Layer 1
10
63.412872
20
259.306712
11
63.412872
21
227.991727
0
LINE
8
Layer 1
10
63.412872
20
227.991727
11
32.097887
21
227.991727
0
LINE
8
Layer 1
10
32.097887
20
227.991727
11
32.097887
21
259.306712
0
LINE
8
Layer 1
10
0.000001
20
227.208561
11
31.314986
21
227.208561
0
LINE
8
Layer 1
10
31.314986
20
227.208561
11
31.314986
21
195.893575
0
LINE
8
Layer 1
10
31.314986
20
195.893575
11
0.000001
21
195.893575
0
LINE
8
Layer 1
10
0.000001
20
195.893575
11
0.000001
21
227.208561
0
LINE
8
Layer 1
10
32.097887
20
195.110674
11
63.412872
21
195.110674
0
LINE
8
Layer 1
10
63.412872
20
195.110674
11
63.412872
21
163.795689
0
LINE
8
Layer 1
10
63.412872
20
163.795689
11
32.097887
21
163.795689
0
LINE
8
Layer 1
10
32.097887
20
163.795689
11
32.097887
21
195.110674
0
LINE
8
Layer 1
10
0.000001
20
163.012788
11
31.314986
21
163.012788
0
LINE
8
Layer 1
10
31.314986
20
163.012788
11
31.314986
21
131.697802
0
LINE
8
Layer 1
10
31.314986
20
131.697802
11
0.000001
21
131.697802
0
LINE
8
Layer 1
10
0.000001
20
131.697802
11
0.000001
21
163.012788
0
LINE
8
Layer 1
10
32.097887
20
130.914901
11
63.412872
21
130.914901
0
LINE
8
Layer 1
10
63.412872
20
130.914901
11
63.412872
21
99.599915
0
LINE
8
Layer 1
10
63.412872
20
99.599915
11
32.097887
21
99.599915
0
LINE
8
Layer 1
10
32.097887
20
99.599915
11
32.097887
21
130.914901
0
LINE
8
Layer 1
10
64.195773
20
355.599578
11
95.510759
21
355.599578
0
LINE
8
Layer 1
10
95.510759
20
355.599578
11
95.510759
21
324.284593
0
LINE
8
Layer 1
10
95.510759
20
324.284593
11
64.195773
21
324.284593
0
LINE
8
Layer 1
10
64.195773
20
324.284593
11
64.195773
21
355.599578
0
LINE
8
Layer 1
10
96.293660
20
323.501692
11
127.608645
21
323.501692
0
LINE
8
Layer 1
10
127.608645
20
323.501692
11
127.608645
21
292.186600
0
LINE
8
Layer 1
10
127.608645
20
292.186600
11
96.293660
21
292.186600
0
LINE
8
Layer 1
10
96.293660
20
292.186600
11
96.293660
21
323.501692
0
LINE
8
Layer 1
10
64.195773
20
291.404572
11
95.510759
21
291.404572
0
LINE
8
Layer 1
10
95.510759
20
291.404572
11
95.510759
21
260.089613
0
LINE
8
Layer 1
10
95.510759
20
260.089613
11
64.195773
21
260.089613
0
LINE
8
Layer 1
10
64.195773
20
260.089613
11
64.195773
21
291.404572
0
LINE
8
Layer 1
10
96.293660
20
259.306712
11
127.608645
21
259.306712
0
LINE
8
Layer 1
10
127.608645
20
259.306712
11
127.608645
21
227.991727
0
LINE
8
Layer 1
10
127.608645
20
227.991727
11
96.293660
21
227.991727
0
LINE
8
Layer 1
10
96.293660
20
227.991727
11
96.293660
21
259.306712
0
LINE
8
Layer 1
10
64.195773
20
227.208561
11
95.510759
21
227.208561
0
LINE
8
Layer 1
10
95.510759
20
227.208561
11
95.510759
21
195.893575
0
LINE
8
Layer 1
10
95.510759
20
195.893575
11
64.195773
21
195.893575
0
LINE
8
Layer 1
10
64.195773
20
195.893575
11
64.195773
21
227.208561
0
LINE
8
Layer 1
10
96.293660
20
195.110674
11
127.608645
21
195.110674
0
LINE
8
Layer 1
10
127.608645
20
195.110674
11
127.608645
21
163.795689
0
LINE
8
Layer 1
10
127.608645
20
163.795689
11
96.293660
21
163.795689
0
LINE
8
Layer 1
10
96.293660
20
163.795689
11
96.293660
21
195.110674
0
LINE
8
Layer 1
10
64.195773
20
163.012788
11
95.510759
21
163.012788
0
LINE
8
Layer 1
10
95.510759
20
163.012788
11
95.510759
21
131.697802
0
LINE
8
Layer 1
10
95.510759
20
131.697802
11
64.195773
21
131.697802
0
LINE
8
Layer 1
10
64.195773
20
131.697802
11
64.195773
21
163.012788
0
LINE
8
Layer 1
10
96.293660
20
130.914901
11
127.608645
21
130.914901
0
LINE
8
Layer 1
10
127.608645
20
130.914901
11
127.608645
21
99.599915
0
LINE
8
Layer 1
10
127.608645
20
99.599915
11
96.293660
21
99.599915
0
LINE
8
Layer 1
10
96.293660
20
99.599915
11
96.293660
21
130.914901
0
LINE
8
Layer 1
10
128.391282
20
355.599578
11
159.706268
21
355.599578
0
LINE
8
Layer 1
10
159.706268
20
355.599578
11
159.706268
21
324.284593
0
LINE
8
Layer 1
10
159.706268
20
324.284593
11
128.391282
21
324.284593
0
LINE
8
Layer 1
10
128.391282
20
324.284593
11
128.391282
21
355.599578
0
LINE
8
Layer 1
10
160.489169
20
323.501692
11
191.804154
21
323.501692
0
LINE
8
Layer 1
10
191.804154
20
323.501692
11
191.804154
21
292.186600
0
LINE
8
Layer 1
10
191.804154
20
292.186600
11
160.489169
21
292.186600
0
LINE
8
Layer 1
10
160.489169
20
292.186600
11
160.489169
21
323.501692
0
LINE
8
Layer 1
10
128.391282
20
291.404572
11
159.706268
21
291.404572
0
LINE
8
Layer 1
10
159.706268
20
291.404572
11
159.706268
21
260.089613
0
LINE
8
Layer 1
10
159.706268
20
260.089613
11
128.391282
21
260.089613
0
LINE
8
Layer 1
10
128.391282
20
260.089613
11
128.391282
21
291.404572
0
LINE
8
Layer 1
10
160.489169
20
259.306712
11
191.804154
21
259.306712
0
LINE
8
Layer 1
10
191.804154
20
259.306712
11
191.804154
21
227.991727
0
LINE
8
Layer 1
10
191.804154
20
227.991727
11
160.489169
21
227.991727
0
LINE
8
Layer 1
10
160.489169
20
227.991727
11
160.489169
21
259.306712
0
LINE
8
Layer 1
10
128.391282
20
227.208561
11
159.706268
21
227.208561
0
LINE
8
Layer 1
10
159.706268
20
227.208561
11
159.706268
21
195.893575
0
LINE
8
Layer 1
10
159.706268
20
195.893575
11
128.391282
21
195.893575
0
LINE
8
Layer 1
10
128.391282
20
195.893575
11
128.391282
21
227.208561
0
LINE
8
Layer 1
10
160.489169
20
195.110674
11
191.804154
21
195.110674
0
LINE
8
Layer 1
10
191.804154
20
195.110674
11
191.804154
21
163.795689
0
LINE
8
Layer 1
10
191.804154
20
163.795689
11
160.489169
21
163.795689
0
LINE
8
Layer 1
10
160.489169
20
163.795689
11
160.489169
21
195.110674
0
LINE
8
Layer 1
10
128.391282
20
163.012788
11
159.706268
21
163.012788
0
LINE
8
Layer 1
10
159.706268
20
163.012788
11
159.706268
21
131.697802
0
LINE
8
Layer 1
10
159.706268
20
131.697802
11
128.391282
21
131.697802
0
LINE
8
Layer 1
10
128.391282
20
131.697802
11
128.391282
21
163.012788
0
LINE
8
Layer 1
10
160.489169
20
130.914901
11
191.804154
21
130.914901
0
LINE
8
Layer 1
10
191.804154
20
130.914901
11
191.804154
21
99.599915
0
LINE
8
Layer 1
10
191.804154
20
99.599915
11
160.489169
21
99.599915
0
LINE
8
Layer 1
10
160.489169
20
99.599915
11
160.489169
21
130.914901
0
LINE
8
Layer 1
10
192.587320
20
355.599578
11
223.902305
21
355.599578
0
LINE
8
Layer 1
10
223.902305
20
355.599578
11
223.902305
21
324.284593
0
LINE
8
Layer 1
10
223.902305
20
324.284593
11
192.587320
21
324.284593
0
LINE
8
Layer 1
10
192.587320
20
324.284593
11
192.587320
21
355.599578
0
LINE
8
Layer 1
10
224.685207
20
323.501692
11
256.000192
21
323.501692
0
LINE
8
Layer 1
10
256.000192
20
323.501692
11
256.000192
21
292.186600
0
LINE
8
Layer 1
10
256.000192
20
292.186600
11
224.685207
21
292.186600
0
LINE
8
Layer 1
10
224.685207
20
292.186600
11
224.685207
21
323.501692
0
LINE
8
Layer 1
10
192.587320
20
291.404572
11
223.902305
21
291.404572
0
LINE
8
Layer 1
10
223.902305
20
291.404572
11
223.902305
21
260.089613
0
LINE
8
Layer 1
10
223.902305
20
260.089613
11
192.587320
21
260.089613
0
LINE
8
Layer 1
10
192.587320
20
260.089613
11
192.587320
21
291.404572
0
LINE
8
Layer 1
10
224.685207
20
259.306712
11
256.000192
21
259.306712
0
LINE
8
Layer 1
10
256.000192
20
259.306712
11
256.000192
21
227.991727
0
LINE
8
Layer 1
10
256.000192
20
227.991727
11
224.685207
21
227.991727
0
LINE
8
Layer 1
10
224.685207
20
227.991727
11
224.685207
21
259.306712
0
LINE
8
Layer 1
10
192.587320
20
227.208561
11
223.902305
21
227.208561
0
LINE
8
Layer 1
10
223.902305
20
227.208561
11
223.902305
21
195.893575
0
LINE
8
Layer 1
10
223.902305
20
195.893575
11
192.587320
21
195.893575
0
LINE
8
Layer 1
10
192.587320
20
195.893575
11
192.587320
21
227.208561
0
LINE
8
Layer 1
10
224.685207
20
195.110674
11
256.000192
21
195.110674
0
LINE
8
Layer 1
10
256.000192
20
195.110674
11
256.000192
21
163.795689
0
LINE
8
Layer 1
10
256.000192
20
163.795689
11
224.685207
21
163.795689
0
LINE
8
Layer 1
10
224.685207
20
163.795689
11
224.685207
21
195.110674
0
LINE
8
Layer 1
10
192.587320
20
163.012788
11
223.902305
21
163.012788
0
LINE
8
Layer 1
10
223.902305
20
163.012788
11
223.902305
21
131.697802
0
LINE
8
Layer 1
10
223.902305
20
131.697802
11
192.587320
21
131.697802
0
LINE
8
Layer 1
10
192.587320
20
131.697802
11
192.587320
21
163.012788
0
LINE
8
Layer 1
10
224.685207
20
130.914901
11
256.000192
21
130.914901
0
LINE
8
Layer 1
10
256.000192
20
130.914901
11
256.000192
21
99.599915
0
LINE
8
Layer 1
10
256.000192
20
99.599915
11
224.685207
21
99.599915
0
LINE
8
Layer 1
10
224.685207
20
99.599915
11
224.685207
21
130.914901
 0 
ENDSEC
 0 
EOF